# xmcd
#
# Track frame offsets: 
#        225
#        12129
#        33556
#        50605
#        61499
#        73030
#        85585
#        100752
#        119339
#        134048
#
# Disc length: 1992 seconds
#
# Revision: 0
# Processed by: cddbd v1.5.2PL0 Copyright (c) Steve Scherf et al.
# Submitted via: ExactAudioCopy v0.95b4
#
DISCID=8907c50a
DTITLE=Hope Street - Big Enough God
DYEAR=2005
DGENRE=Christian
TTITLE0=Big Enough God
TTITLE1=New Jerusalem
TTITLE2=Mama I Love You
TTITLE3=Is Your Name Written Down
TTITLE4=We Will Be There
TTITLE5=Standing Alone
TTITLE6=The Time To Win The Battle
TTITLE7=So Far From Worthy
TTITLE8=My Name Is Lazarus
TTITLE9=Oh What A Friend
EXTD=
EXTT0=
EXTT1=
EXTT2=
EXTT3=
EXTT4=
EXTT5=
EXTT6=
EXTT7=
EXTT8=
EXTT9=
PLAYORDER=
